<?xml version="1.0" encoding="UTF-8"?>
<svg xmlns="http://www.w3.org/2000/svg" xmlns:xlink="http://www.w3.org/1999/xlink" width="28pt" height="28pt" viewBox="0 0 28 28" version="1.1">
<g id="surface1">
<path style=" stroke:none;fill-rule:nonzero;fill:rgb(0%,0%,0%);fill-opacity:1;" d="M 14 0 C 9.167969 0 5.25 3.917969 5.25 8.75 C 5.25 10.101562 5.558594 11.386719 6.105469 12.53125 C 6.136719 12.59375 14 28 14 28 L 21.796875 12.722656 C 22.40625 11.53125 22.75 10.179688 22.75 8.75 C 22.75 3.917969 18.832031 0 14 0 Z M 14 14 C 11.101562 14 8.75 11.648438 8.75 8.75 C 8.75 5.851562 11.101562 3.5 14 3.5 C 16.898438 3.5 19.25 5.851562 19.25 8.75 C 19.25 11.648438 16.898438 14 14 14 Z M 14 14 "/>
</g>
</svg>
